# xmcd CD database file
#
# Track frame offsets:
#	150
#	22932
#	45241
#	67095
#	89070
#	112200
#	134735
#	154260
#	176660
#	199229
#	221152
#	242055
#	262090
#	284761
#	305121
#	327145
#	343456
#
# Disc length: 4791 seconds
#
# Revision: 5
# Processed by: cddbd v1.5.2PL0 Copyright (c) Steve Scherf et al.
# Submitted via: CDex 1.70beta2
#
DISCID=1f12b511
DTITLE=Lorentz, Iny - Die Löwin
DYEAR=2006
DGENRE=Hörbuch
TTITLE0=84 Die Löwin
TTITLE1=85 Die Löwin
TTITLE2=86 Die Löwin
TTITLE3=87 Die Löwin
TTITLE4=88 Die Löwin
TTITLE5=89 Die Löwin
TTITLE6=90 Die Löwin
TTITLE7=91 Die Löwin
TTITLE8=92 Die Löwin
TTITLE9=93 Die Löwin
TTITLE10=94 Die Löwin
TTITLE11=95 Die Löwin
TTITLE12=96 Die Löwin
TTITLE13=97 Die Löwin
TTITLE14=98 Die Löwin
TTITLE15=99 Die Löwin
TTITLE16=99b Die Löwin ENDE
EXTD=YEAR: 2006
EXTT0=
EXTT1=
EXTT2=
EXTT3=
EXTT4=
EXTT5=
EXTT6=
EXTT7=
EXTT8=
EXTT9=
EXTT10=
EXTT11=
EXTT12=
EXTT13=
EXTT14=
EXTT15=
EXTT16=
PLAYORDER=
